<svg width="133" height="136" viewBox="0 0 133 136" fill="none" xmlns="http://www.w3.org/2000/svg">
<g filter="url(#filter0_iif_59_2730)">
<rect x="25.5" y="26" width="82" height="84" rx="41" fill="url(#paint0_linear_59_2730)"/>
<rect x="27.5" y="28" width="78" height="80" rx="39" stroke="#FDB56C" stroke-width="4"/>
<g filter="url(#filter1_di_59_2730)">
<path d="M58.8268 43.149L85.5723 50.3155C90.4899 51.6331 92.1853 57.7727 88.5624 61.398L60.2186 86.7872C56.3221 89.6405 54.7174 87.863 54.2122 83.6851L50.6927 51.2508C49.3692 46.3075 53.9092 41.8314 58.8234 43.1481L58.8268 43.149ZM62.5309 78.2113L67.9899 72.2174L84.992 57.8258C85.8303 56.9863 85.4645 55.5245 84.2662 55.2034L73.3337 52.2741L62.5334 78.2156L62.5309 78.2113ZM55.5818 49.9418L57.6538 76.9045L68.4541 50.963L57.5216 48.0336C56.3233 47.7126 55.2756 48.7956 55.5818 49.9418Z" fill="url(#paint1_linear_59_2730)"/>
</g>
</g>
<g filter="url(#filter2_ii_59_2730)">
<rect x="25.5" y="26" width="82" height="84" rx="41" fill="url(#paint2_linear_59_2730)"/>
<rect x="27.5" y="28" width="78" height="80" rx="39" stroke="#FDB56C" stroke-width="4"/>
<g filter="url(#filter3_di_59_2730)">
<path d="M58.8268 43.149L85.5723 50.3155C90.4899 51.6331 92.1853 57.7727 88.5624 61.398L60.2186 86.7872C56.3221 89.6405 54.7174 87.863 54.2122 83.6851L50.6927 51.2508C49.3692 46.3075 53.9092 41.8314 58.8234 43.1481L58.8268 43.149ZM62.5309 78.2113L67.9899 72.2174L84.992 57.8258C85.8303 56.9863 85.4645 55.5245 84.2662 55.2034L73.3337 52.2741L62.5334 78.2156L62.5309 78.2113ZM55.5818 49.9418L57.6538 76.9045L68.4541 50.963L57.5216 48.0336C56.3233 47.7126 55.2756 48.7956 55.5818 49.9418Z" fill="url(#paint3_linear_59_2730)"/>
</g>
</g>
<g filter="url(#filter4_ii_59_2730)">
<rect x="61" y="59.5" width="50" height="51.2195" rx="25" fill="url(#paint4_linear_59_2730)"/>
<rect x="62.2195" y="60.7195" width="47.561" height="48.7805" rx="23.7805" stroke="#FDB56C" stroke-width="2.43902"/>
<g filter="url(#filter5_di_59_2730)">
<path d="M81.3211 69.9567L97.6294 74.3265C100.628 75.1299 101.662 78.8736 99.4526 81.0841L82.1698 96.5654C79.7939 98.3052 78.8154 97.2213 78.5073 94.6738L76.3613 74.8968C75.5543 71.8826 78.3226 69.1533 81.3191 69.9562L81.3211 69.9567ZM83.5797 91.3361L86.9083 87.6813L97.2755 78.906C97.7867 78.394 97.5636 77.5027 96.8329 77.307L90.1668 75.5208L83.5812 91.3387L83.5797 91.3361ZM79.3424 74.0986L80.6059 90.5393L87.1914 74.7213L80.5252 72.9351C79.7946 72.7393 79.1558 73.3997 79.3424 74.0986Z" fill="url(#paint5_linear_59_2730)"/>
</g>
</g>
<g clip-path="url(#clip0_59_2730)">
<path d="M82.5157 114.851L75.6449 113.742L70.3652 110.378L78.0431 102.7L81.1859 108.201L82.5157 114.851Z" fill="#D9D9D9"/>
<path d="M78.5261 109.088L80.7425 113.077L76.7529 110.861L29.7652 63.8733L31.5383 62.1002L78.5261 109.088Z" fill="#D9D9D9"/>
<path d="M78.5261 109.088L80.7425 113.077L76.7529 110.861L29.7652 63.8733L31.5383 62.1002L78.5261 109.088Z" fill="url(#paint6_linear_59_2730)"/>
<path d="M45.2796 75.8413L29.7648 60.3264L36.414 53.6772L39.3745 58.4741L38.6942 66.7858L40.502 62.9597L45.2796 75.8413Z" fill="#D9D9D9"/>
<path d="M45.2796 75.8413L29.7648 60.3264L36.414 53.6772L39.3745 58.4741L38.6942 66.7858L40.502 62.9597L45.2796 75.8413Z" fill="url(#paint7_linear_59_2730)"/>
<path d="M43.5059 77.6145L27.991 62.0997L21.7851 68.3056L29.0992 68.084L23.3366 69.8571L30.6243 72.8369L43.5059 77.6145Z" fill="#D9D9D9"/>
<path d="M43.5059 77.6145L27.991 62.0997L21.7851 68.3056L29.0992 68.084L23.3366 69.8571L30.6243 72.8369L43.5059 77.6145Z" fill="url(#paint8_linear_59_2730)"/>
</g>
<g clip-path="url(#clip1_59_2730)">
<path d="M96.5545 100.828L90.5905 104.415L84.3862 105.252L85.2971 94.4324L91.2478 96.6069L96.5545 100.828Z" fill="#D9D9D9"/>
<path d="M89.788 99.0005L94.0556 100.618L89.5776 101.499L23.3611 95.9251L23.5714 93.4263L89.788 99.0005Z" fill="#D9D9D9"/>
<path d="M89.788 99.0005L94.0556 100.618L89.5776 101.499L23.3611 95.9251L23.5714 93.4263L89.788 99.0005Z" fill="url(#paint9_linear_59_2730)"/>
<path d="M42.9359 95.0563L21.072 93.2157L21.8608 83.8455L27.2178 85.5995L32.0616 92.3881L30.9737 88.2986L42.9359 95.0563Z" fill="#D9D9D9"/>
<path d="M42.9359 95.0563L21.072 93.2157L21.8608 83.8455L27.2178 85.5995L32.0616 92.3881L30.9737 88.2986L42.9359 95.0563Z" fill="url(#paint10_linear_59_2730)"/>
<path d="M42.7252 97.5555L20.8613 95.715L20.1251 104.461L25.5695 99.5714L22.3115 104.645L29.8016 102.218L42.7252 97.5555Z" fill="#D9D9D9"/>
<path d="M42.7252 97.5555L20.8613 95.715L20.1251 104.461L25.5695 99.5714L22.3115 104.645L29.8016 102.218L42.7252 97.5555Z" fill="url(#paint11_linear_59_2730)"/>
</g>
<defs>
<filter id="filter0_iif_59_2730" x="0.200001" y="0.700001" width="132.6" height="134.6" filterUnits="userSpaceOnUse" color-interpolation-filters="sRGB">
<feFlood flood-opacity="0" result="BackgroundImageFix"/>
<feBlend mode="normal" in="SourceGraphic" in2="BackgroundImageFix" result="shape"/>
<feColorMatrix in="SourceAlpha" type="matrix" values="0 0 0 0 0 0 0 0 0 0 0 0 0 0 0 0 0 0 127 0" result="hardAlpha"/>
<feOffset dx="-3" dy="-3"/>
<feComposite in2="hardAlpha" operator="arithmetic" k2="-1" k3="1"/>
<feColorMatrix type="matrix" values="0 0 0 0 0.795139 0 0 0 0 0.328356 0 0 0 0 0.0381944 0 0 0 1 0"/>
<feBlend mode="normal" in2="shape" result="effect1_innerShadow_59_2730"/>
<feColorMatrix in="SourceAlpha" type="matrix" values="0 0 0 0 0 0 0 0 0 0 0 0 0 0 0 0 0 0 127 0" result="hardAlpha"/>
<feOffset dy="4"/>
<feGaussianBlur stdDeviation="4.3"/>
<feComposite in2="hardAlpha" operator="arithmetic" k2="-1" k3="1"/>
<feColorMatrix type="matrix" values="0 0 0 0 1 0 0 0 0 0.89 0 0 0 0 0.266667 0 0 0 0.25 0"/>
<feBlend mode="normal" in2="effect1_innerShadow_59_2730" result="effect2_innerShadow_59_2730"/>
<feGaussianBlur stdDeviation="12.65" result="effect3_foregroundBlur_59_2730"/>
</filter>
<filter id="filter1_di_59_2730" x="50.4601" y="42.9152" width="40.0458" height="47.4343" filterUnits="userSpaceOnUse" color-interpolation-filters="sRGB">
<feFlood flood-opacity="0" result="BackgroundImageFix"/>
<feColorMatrix in="SourceAlpha" type="matrix" values="0 0 0 0 0 0 0 0 0 0 0 0 0 0 0 0 0 0 127 0" result="hardAlpha"/>
<feOffset dy="1"/>
<feComposite in2="hardAlpha" operator="out"/>
<feColorMatrix type="matrix" values="0 0 0 0 0.665729 0 0 0 0 0.292517 0 0 0 0 0.0259375 0 0 0 1 0"/>
<feBlend mode="normal" in2="BackgroundImageFix" result="effect1_dropShadow_59_2730"/>
<feBlend mode="normal" in="SourceGraphic" in2="effect1_dropShadow_59_2730" result="shape"/>
<feColorMatrix in="SourceAlpha" type="matrix" values="0 0 0 0 0 0 0 0 0 0 0 0 0 0 0 0 0 0 127 0" result="hardAlpha"/>
<feOffset dy="2.16995"/>
<feGaussianBlur stdDeviation="1.08497"/>
<feComposite in2="hardAlpha" operator="arithmetic" k2="-1" k3="1"/>
<feColorMatrix type="matrix" values="0 0 0 0 1 0 0 0 0 0.764444 0 0 0 0 0.116667 0 0 0 0.25 0"/>
<feBlend mode="normal" in2="shape" result="effect2_innerShadow_59_2730"/>
</filter>
<filter id="filter2_ii_59_2730" x="25.5" y="26" width="82" height="88" filterUnits="userSpaceOnUse" color-interpolation-filters="sRGB">
<feFlood flood-opacity="0" result="BackgroundImageFix"/>
<feBlend mode="normal" in="SourceGraphic" in2="BackgroundImageFix" result="shape"/>
<feColorMatrix in="SourceAlpha" type="matrix" values="0 0 0 0 0 0 0 0 0 0 0 0 0 0 0 0 0 0 127 0" result="hardAlpha"/>
<feOffset dx="-3" dy="-3"/>
<feComposite in2="hardAlpha" operator="arithmetic" k2="-1" k3="1"/>
<feColorMatrix type="matrix" values="0 0 0 0 0.795139 0 0 0 0 0.328356 0 0 0 0 0.0381944 0 0 0 1 0"/>
<feBlend mode="normal" in2="shape" result="effect1_innerShadow_59_2730"/>
<feColorMatrix in="SourceAlpha" type="matrix" values="0 0 0 0 0 0 0 0 0 0 0 0 0 0 0 0 0 0 127 0" result="hardAlpha"/>
<feOffset dy="4"/>
<feGaussianBlur stdDeviation="4.3"/>
<feComposite in2="hardAlpha" operator="arithmetic" k2="-1" k3="1"/>
<feColorMatrix type="matrix" values="0 0 0 0 1 0 0 0 0 0.89 0 0 0 0 0.266667 0 0 0 0.25 0"/>
<feBlend mode="normal" in2="effect1_innerShadow_59_2730" result="effect2_innerShadow_59_2730"/>
</filter>
<filter id="filter3_di_59_2730" x="50.4601" y="42.9152" width="40.0458" height="47.4343" filterUnits="userSpaceOnUse" color-interpolation-filters="sRGB">
<feFlood flood-opacity="0" result="BackgroundImageFix"/>
<feColorMatrix in="SourceAlpha" type="matrix" values="0 0 0 0 0 0 0 0 0 0 0 0 0 0 0 0 0 0 127 0" result="hardAlpha"/>
<feOffset dy="1"/>
<feComposite in2="hardAlpha" operator="out"/>
<feColorMatrix type="matrix" values="0 0 0 0 0.665729 0 0 0 0 0.292517 0 0 0 0 0.0259375 0 0 0 1 0"/>
<feBlend mode="normal" in2="BackgroundImageFix" result="effect1_dropShadow_59_2730"/>
<feBlend mode="normal" in="SourceGraphic" in2="effect1_dropShadow_59_2730" result="shape"/>
<feColorMatrix in="SourceAlpha" type="matrix" values="0 0 0 0 0 0 0 0 0 0 0 0 0 0 0 0 0 0 127 0" result="hardAlpha"/>
<feOffset dy="2.16995"/>
<feGaussianBlur stdDeviation="1.08497"/>
<feComposite in2="hardAlpha" operator="arithmetic" k2="-1" k3="1"/>
<feColorMatrix type="matrix" values="0 0 0 0 1 0 0 0 0 0.764444 0 0 0 0 0.116667 0 0 0 0.25 0"/>
<feBlend mode="normal" in2="shape" result="effect2_innerShadow_59_2730"/>
</filter>
<filter id="filter4_ii_59_2730" x="61" y="59.5" width="50" height="53.6585" filterUnits="userSpaceOnUse" color-interpolation-filters="sRGB">
<feFlood flood-opacity="0" result="BackgroundImageFix"/>
<feBlend mode="normal" in="SourceGraphic" in2="BackgroundImageFix" result="shape"/>
<feColorMatrix in="SourceAlpha" type="matrix" values="0 0 0 0 0 0 0 0 0 0 0 0 0 0 0 0 0 0 127 0" result="hardAlpha"/>
<feOffset dx="-1.82927" dy="-1.82927"/>
<feComposite in2="hardAlpha" operator="arithmetic" k2="-1" k3="1"/>
<feColorMatrix type="matrix" values="0 0 0 0 0.795139 0 0 0 0 0.328356 0 0 0 0 0.0381944 0 0 0 1 0"/>
<feBlend mode="normal" in2="shape" result="effect1_innerShadow_59_2730"/>
<feColorMatrix in="SourceAlpha" type="matrix" values="0 0 0 0 0 0 0 0 0 0 0 0 0 0 0 0 0 0 127 0" result="hardAlpha"/>
<feOffset dy="2.43902"/>
<feGaussianBlur stdDeviation="2.62195"/>
<feComposite in2="hardAlpha" operator="arithmetic" k2="-1" k3="1"/>
<feColorMatrix type="matrix" values="0 0 0 0 1 0 0 0 0 0.89 0 0 0 0 0.266667 0 0 0 0.25 0"/>
<feBlend mode="normal" in2="effect1_innerShadow_59_2730" result="effect2_innerShadow_59_2730"/>
</filter>
<filter id="filter5_di_59_2730" x="76.2195" y="69.8141" width="24.4181" height="28.9234" filterUnits="userSpaceOnUse" color-interpolation-filters="sRGB">
<feFlood flood-opacity="0" result="BackgroundImageFix"/>
<feColorMatrix in="SourceAlpha" type="matrix" values="0 0 0 0 0 0 0 0 0 0 0 0 0 0 0 0 0 0 127 0" result="hardAlpha"/>
<feOffset dy="0.609756"/>
<feComposite in2="hardAlpha" operator="out"/>
<feColorMatrix type="matrix" values="0 0 0 0 0.665729 0 0 0 0 0.292517 0 0 0 0 0.0259375 0 0 0 1 0"/>
<feBlend mode="normal" in2="BackgroundImageFix" result="effect1_dropShadow_59_2730"/>
<feBlend mode="normal" in="SourceGraphic" in2="effect1_dropShadow_59_2730" result="shape"/>
<feColorMatrix in="SourceAlpha" type="matrix" values="0 0 0 0 0 0 0 0 0 0 0 0 0 0 0 0 0 0 127 0" result="hardAlpha"/>
<feOffset dy="1.32314"/>
<feGaussianBlur stdDeviation="0.661569"/>
<feComposite in2="hardAlpha" operator="arithmetic" k2="-1" k3="1"/>
<feColorMatrix type="matrix" values="0 0 0 0 1 0 0 0 0 0.764444 0 0 0 0 0.116667 0 0 0 0.25 0"/>
<feBlend mode="normal" in2="shape" result="effect2_innerShadow_59_2730"/>
</filter>
<linearGradient id="paint0_linear_59_2730" x1="43.4076" y1="26" x2="86.2545" y2="111.669" gradientUnits="userSpaceOnUse">
<stop stop-color="#F1C228"/>
<stop offset="1" stop-color="#FB6819"/>
</linearGradient>
<linearGradient id="paint1_linear_59_2730" x1="83.3515" y1="49.7204" x2="49.6485" y2="86.2796" gradientUnits="userSpaceOnUse">
<stop stop-color="#F1C228"/>
<stop offset="1" stop-color="#FB6819"/>
</linearGradient>
<linearGradient id="paint2_linear_59_2730" x1="43.4076" y1="26" x2="86.2545" y2="111.669" gradientUnits="userSpaceOnUse">
<stop stop-color="#F1C228"/>
<stop offset="1" stop-color="#FB6819"/>
</linearGradient>
<linearGradient id="paint3_linear_59_2730" x1="83.3515" y1="49.7204" x2="49.6485" y2="86.2796" gradientUnits="userSpaceOnUse">
<stop stop-color="#F1C228"/>
<stop offset="1" stop-color="#FB6819"/>
</linearGradient>
<linearGradient id="paint4_linear_59_2730" x1="71.9193" y1="59.5" x2="98.0455" y2="111.737" gradientUnits="userSpaceOnUse">
<stop stop-color="#F1C228"/>
<stop offset="1" stop-color="#FB6819"/>
</linearGradient>
<linearGradient id="paint5_linear_59_2730" x1="96.2752" y1="73.9636" x2="75.7246" y2="96.2558" gradientUnits="userSpaceOnUse">
<stop stop-color="#F1C228"/>
<stop offset="1" stop-color="#FB6819"/>
</linearGradient>
<linearGradient id="paint6_linear_59_2730" x1="70.6068" y1="101.169" x2="68.9029" y2="102.873" gradientUnits="userSpaceOnUse">
<stop stop-color="#362C2C"/>
<stop offset="1" stop-color="#664444"/>
</linearGradient>
<linearGradient id="paint7_linear_59_2730" x1="45.3196" y1="55.1149" x2="24.5533" y2="75.8811" gradientUnits="userSpaceOnUse">
<stop stop-color="#E8FC64"/>
<stop offset="1" stop-color="#BEEB7A"/>
</linearGradient>
<linearGradient id="paint8_linear_59_2730" x1="22.7795" y1="77.6544" x2="43.5457" y2="56.8882" gradientUnits="userSpaceOnUse">
<stop stop-color="#E8FC64"/>
<stop offset="1" stop-color="#BEEB7A"/>
</linearGradient>
<linearGradient id="paint9_linear_59_2730" x1="78.6279" y1="98.0611" x2="78.4258" y2="100.462" gradientUnits="userSpaceOnUse">
<stop stop-color="#362C2C"/>
<stop offset="1" stop-color="#664444"/>
</linearGradient>
<linearGradient id="paint10_linear_59_2730" x1="29.5917" y1="79.197" x2="27.1282" y2="108.461" gradientUnits="userSpaceOnUse">
<stop stop-color="#E8FC64"/>
<stop offset="1" stop-color="#BEEB7A"/>
</linearGradient>
<linearGradient id="paint11_linear_59_2730" x1="26.9175" y1="110.961" x2="29.381" y2="81.6964" gradientUnits="userSpaceOnUse">
<stop stop-color="#E8FC64"/>
<stop offset="1" stop-color="#BEEB7A"/>
</linearGradient>
<clipPath id="clip0_59_2730">
<rect width="73.4228" height="51.8585" fill="white" transform="translate(26.422 51) rotate(15)"/>
</clipPath>
<clipPath id="clip1_59_2730">
<rect width="73.4228" height="51.8585" fill="white" transform="translate(12.5 88.2481) rotate(-25.1881)"/>
</clipPath>
</defs>
</svg>
