<svg width="75" height="346" viewBox="0 0 75 346" fill="none" xmlns="http://www.w3.org/2000/svg">
<path d="M24.149 51.029C23.8021 49.1706 22.9355 47.4486 21.6497 46.0627L-17.669 3.68104C-23.8519 -2.98347 -35 1.3914 -35 10.4823L-35 277.573C-35 278.519 -34.8656 279.461 -34.6007 280.37L-17.734 338.254C-15.6056 345.558 -6.42383 347.905 -1.05191 342.517L58.6889 282.602C60.9459 280.339 61.9848 277.133 61.4842 273.976L50.1498 202.492C49.9252 201.075 50.008 199.627 50.3924 198.245L73.7308 114.366C75.0405 109.659 72.7571 104.695 68.3309 102.626L35.1311 87.1092C32.2101 85.744 30.1266 83.0542 29.535 79.8847L24.149 51.029Z" fill="url(#paint0_linear_831_1892)"/>
<defs>
<linearGradient id="paint0_linear_831_1892" x1="13.6404" y1="135.165" x2="13.1362" y2="413.751" gradientUnits="userSpaceOnUse">
<stop stop-color="#2F1817"/>
<stop offset="0.494265" stop-color="#231414"/>
</linearGradient>
</defs>
</svg>
