<svg width="84" height="267" viewBox="0 0 84 267" fill="none" xmlns="http://www.w3.org/2000/svg">
<path d="M48.5228 38.6502C49.0798 36.5084 50.3316 34.6119 52.0821 33.2578L91.8812 2.46936C98.4536 -2.61495 108 2.06952 108 10.3789V201L100.05 257.405C98.9474 265.23 89.6307 268.744 83.6344 263.597L15.2613 204.899C12.4646 202.498 11.2154 198.754 12.0105 195.155L22.5387 147.501C22.9641 145.576 22.8107 143.567 22.098 141.729L0.785745 86.7562C-1.27616 81.4377 1.52134 75.4746 6.92938 73.6606L37.3878 63.4438C40.5911 62.3693 43.0352 59.75 43.8857 56.48L48.5228 38.6502Z" fill="url(#paint0_linear_831_1891)"/>
<defs>
<linearGradient id="paint0_linear_831_1891" x1="59.3596" y1="97.7713" x2="59.6193" y2="297.709" gradientUnits="userSpaceOnUse">
<stop stop-color="#2F1817"/>
<stop offset="0.494265" stop-color="#231414"/>
</linearGradient>
</defs>
</svg>
